# 3ds Max Wavefront OBJ Exporter v0.97b - (c)2007 guruware
# File Created: 12.02.2018 09:47:21

mtllib 872929-lavabo obj.mtl

#
# object Cylinder007
#

v  47.1113 42.8917 -321.5223
v  39.9315 42.8917 -318.5484
v  32.7517 42.8917 -321.5223
v  29.7777 42.8917 -328.7021
v  32.7517 42.8917 -335.8820
v  39.9315 42.8917 -338.8559
v  47.1113 42.8917 -335.8820
v  50.0853 42.8917 -328.7021
v  47.1142 42.9744 -335.8849
v  50.0894 42.9744 -328.7021
v  39.9315 42.9744 -338.8600
v  32.7488 42.9744 -335.8849
v  29.7736 42.9744 -328.7021
v  32.7488 42.9744 -321.5194
v  39.9315 42.9744 -318.5443
v  47.1142 42.9744 -321.5194
v  50.4820 50.8367 -328.7021
v  47.3918 50.8367 -336.1625
v  47.7569 58.5511 -336.5276
v  50.9983 58.5511 -328.7021
v  39.9315 50.8367 -339.2527
v  39.9315 58.5511 -339.7690
v  32.4711 50.8367 -336.1625
v  32.1061 58.5511 -336.5276
v  29.3810 50.8367 -328.7021
v  28.8647 58.5511 -328.7021
v  32.4711 50.8367 -321.2418
v  32.1061 58.5511 -320.8767
v  39.9315 50.8367 -318.1516
v  39.9315 58.5511 -317.6353
v  47.3918 50.8367 -321.2418
v  47.7569 58.5511 -320.8767
v  48.0583 66.4930 -336.8290
v  51.4246 66.4930 -328.7021
v  39.9315 66.4930 -340.1953
v  31.8046 66.4930 -336.8290
v  28.4384 66.4930 -328.7021
v  31.8046 66.4930 -320.5753
v  39.9315 66.4930 -317.2090
v  48.0583 66.4930 -320.5753
v  48.3583 74.7485 -337.1290
v  51.8488 74.7485 -328.7021
v  39.9315 74.7485 -340.6195
v  31.5046 74.7485 -337.1290
v  28.0141 74.7485 -328.7021
v  31.5046 74.7485 -320.2753
v  39.9315 74.7485 -316.7848
v  48.3583 74.7485 -320.2753
v  48.6315 82.7593 -337.4021
v  52.2351 82.7593 -328.7021
v  39.9315 82.7593 -341.0058
v  31.2315 82.7593 -337.4021
v  27.6278 82.7593 -328.7021
v  31.2315 82.7593 -320.0021
v  39.9315 82.7593 -316.3985
v  48.6315 82.7593 -320.0021
v  40.9240 76.5377 -327.7096
v  41.3351 76.5377 -328.7021
v  40.9240 76.5377 -329.6947
v  39.9315 76.5377 -330.1058
v  38.9390 76.5377 -329.6947
v  38.5278 76.5377 -328.7021
v  38.9390 76.5377 -327.7096
v  39.9315 76.5377 -327.2985
v  52.2469 83.0039 -328.7021
v  48.6398 83.0039 -337.4105
v  47.8227 83.0039 -336.5934
v  51.0914 83.0039 -328.7021
v  39.9315 83.0039 -341.0176
v  39.9315 83.0039 -339.8620
v  31.2232 83.0039 -337.4105
v  32.0403 83.0039 -336.5934
v  27.6160 83.0039 -328.7021
v  28.7716 83.0039 -328.7021
v  31.2232 83.0039 -319.9938
v  32.0403 83.0039 -320.8109
v  39.9315 83.0039 -316.3867
v  39.9315 83.0039 -317.5423
v  48.6398 83.0039 -319.9938
v  47.8227 83.0039 -320.8109
v  50.9007 83.0039 -328.7021
v  47.6879 83.0039 -336.4585
v  43.8737 76.8853 -332.6444
v  45.5067 76.8853 -328.7021
v  39.9315 83.0039 -339.6714
v  39.9315 76.8853 -334.2773
v  32.1751 83.0039 -336.4585
v  35.9892 76.8853 -332.6444
v  28.9623 83.0039 -328.7021
v  34.3563 76.8853 -328.7021
v  32.1751 83.0039 -320.9457
v  35.9892 76.8853 -324.7599
v  39.9315 83.0039 -317.7329
v  39.9315 76.8853 -323.1270
v  47.6879 83.0039 -320.9457
v  43.8737 76.8853 -324.7599
v  43.7871 76.8853 -332.5578
v  45.3842 76.8853 -328.7021
v  39.9315 76.8853 -334.1548
v  36.0759 76.8853 -332.5578
v  34.4788 76.8853 -328.7021
v  36.0759 76.8853 -324.8465
v  39.9315 76.8853 -323.2495
v  43.7871 76.8853 -324.8465
v  41.3351 76.8853 -328.7021
v  40.9240 76.8853 -329.6947
v  40.9240 76.6393 -329.6947
v  41.3351 76.6393 -328.7021
v  39.9315 76.8853 -330.1058
v  39.9315 76.6393 -330.1058
v  38.9390 76.8853 -329.6947
v  38.9390 76.6393 -329.6947
v  38.5278 76.8853 -328.7021
v  38.5278 76.6393 -328.7021
v  38.9390 76.8853 -327.7096
v  38.9390 76.6393 -327.7096
v  39.9315 76.8853 -327.2985
v  39.9315 76.6393 -327.2985
v  40.9240 76.8853 -327.7096
v  40.9240 76.6393 -327.7096
v  41.0285 76.8853 -329.7991
v  41.4828 76.8853 -328.7021
v  39.9315 76.8853 -330.2535
v  38.8345 76.8853 -329.7991
v  38.3801 76.8853 -328.7021
v  38.8345 76.8853 -327.6052
v  39.9315 76.8853 -327.1508
v  41.0285 76.8853 -327.6052
# 128 vertices

vn 0.5380 -0.6489 0.5380
vn -0.0000 -0.6489 0.7609
vn -0.5380 -0.6489 0.5380
vn -0.7609 -0.6489 0.0000
vn -0.5380 -0.6489 -0.5380
vn -0.0000 -0.6489 -0.7609
vn 0.5380 -0.6489 -0.5380
vn 0.7609 -0.6489 0.0000
vn 0.7062 -0.0499 -0.7062
vn 0.9988 -0.0499 0.0000
vn -0.0000 -0.0499 -0.9988
vn -0.7062 -0.0499 -0.7062
vn -0.9988 -0.0499 -0.0000
vn -0.7062 -0.0499 0.7062
vn -0.0000 -0.0499 0.9988
vn 0.7062 -0.0499 0.7062
vn 0.9983 -0.0584 -0.0000
vn 0.7059 -0.0584 -0.7059
vn 0.7058 -0.0601 -0.7058
vn 0.9982 -0.0601 -0.0000
vn -0.0000 -0.0584 -0.9983
vn -0.0000 -0.0601 -0.9982
vn -0.7059 -0.0584 -0.7059
vn -0.7058 -0.0601 -0.7058
vn -0.9983 -0.0584 0.0000
vn -0.9982 -0.0601 0.0000
vn -0.7059 -0.0584 0.7059
vn -0.7058 -0.0601 0.7058
vn 0.0000 -0.0584 0.9983
vn -0.0000 -0.0601 0.9982
vn 0.7059 -0.0584 0.7059
vn 0.7058 -0.0601 0.7058
vn 0.7061 -0.0524 -0.7061
vn 0.9986 -0.0524 0.0000
vn 0.0000 -0.0524 -0.9986
vn -0.7061 -0.0524 -0.7061
vn -0.9986 -0.0524 -0.0000
vn -0.7061 -0.0524 0.7061
vn 0.0000 -0.0524 0.9986
vn 0.7061 -0.0524 0.7061
vn 0.7062 -0.0497 -0.7062
vn 0.9988 -0.0497 0.0000
vn -0.0000 -0.0497 -0.9988
vn -0.7062 -0.0497 -0.7062
vn -0.9988 -0.0497 0.0000
vn -0.7062 -0.0497 0.7062
vn 0.0000 -0.0497 0.9988
vn 0.7062 -0.0497 0.7062
vn 0.7063 -0.0482 -0.7063
vn 0.9988 -0.0482 -0.0000
vn -0.0000 -0.0482 -0.9988
vn -0.7063 -0.0482 -0.7063
vn -0.9988 -0.0482 0.0000
vn -0.7063 -0.0482 0.7063
vn -0.0000 -0.0482 0.9988
vn 0.7063 -0.0482 0.7063
vn -0.5490 0.6303 -0.5490
vn -0.7764 0.6303 -0.0000
vn -0.5490 0.6303 0.5490
vn 0.0000 0.6303 0.7764
vn 0.5490 0.6303 0.5490
vn 0.7764 0.6303 0.0000
vn 0.5490 0.6303 -0.5490
vn 0.0000 0.6303 -0.7764
vn 0.7908 0.6121 0.0000
vn 0.5592 0.6121 -0.5592
vn 0.0000 1.0000 -0.0000
vn -0.0000 0.6121 -0.7908
vn -0.0000 1.0000 -0.0000
vn -0.5592 0.6121 -0.5592
vn -0.7908 0.6121 0.0000
vn -0.0000 1.0000 0.0000
vn -0.5592 0.6121 0.5592
vn -0.0000 0.6121 0.7908
vn 0.5592 0.6121 0.5592
vn 0.0000 1.0000 0.0000
vn -0.3195 0.9476 -0.0000
vn -0.2259 0.9476 0.2259
vn -0.3461 0.8721 0.3461
vn -0.4894 0.8721 -0.0000
vn 0.0000 0.9476 0.3195
vn 0.0000 0.8721 0.4894
vn 0.2259 0.9476 0.2259
vn 0.3461 0.8721 0.3461
vn 0.3195 0.9476 -0.0000
vn 0.4894 0.8721 -0.0000
vn 0.2259 0.9476 -0.2259
vn 0.3461 0.8721 -0.3461
vn 0.0000 0.9476 -0.3195
vn 0.0000 0.8721 -0.4894
vn -0.2259 0.9476 -0.2259
vn -0.3461 0.8721 -0.3461
vn -0.5944 0.8042 -0.0000
vn -0.4203 0.8042 0.4203
vn -0.7071 0.0000 0.7071
vn -1.0000 0.0000 -0.0000
vn 0.0000 0.8042 0.5944
vn 0.0000 0.0000 1.0000
vn 0.4203 0.8042 0.4203
vn 0.7071 0.0000 0.7071
vn 0.5944 0.8042 0.0000
vn 1.0000 0.0000 0.0000
vn 0.4203 0.8042 -0.4203
vn 0.7071 0.0000 -0.7071
vn 0.0000 0.8042 -0.5944
vn 0.0000 0.0000 -1.0000
vn -0.4203 0.8042 -0.4203
vn -0.7071 0.0000 -0.7071
# 108 vertex normals

vt 0.4786 0.0000 0.4142
vt 0.2197 0.0000 -0.4142
vt 0.1250 0.0000 -1.0000
vt 0.2500 0.0000 -1.0000
vt 0.5214 0.0000 -0.4142
vt 0.7803 0.0000 0.4142
vt 0.8750 0.0000 1.0000
vt 0.7500 0.0000 1.0000
vt 0.8750 0.0021 1.0000
vt 0.7500 0.0021 1.0000
vt -0.1250 0.0000 1.0000
vt 0.0000 0.0000 1.0000
vt 0.0000 0.0021 1.0000
vt -0.1250 0.0021 1.0000
vt 0.1250 0.0000 1.0000
vt 0.1250 0.0021 1.0000
vt 0.2500 0.0000 1.0000
vt 0.2500 0.0021 1.0000
vt 0.3750 0.0000 1.0000
vt 0.3750 0.0021 1.0000
vt 0.5000 0.0000 1.0000
vt 0.5000 0.0021 1.0000
vt 0.6250 0.0000 1.0000
vt 0.6250 0.0021 1.0000
vt 0.7500 0.2000 1.0000
vt 0.8750 0.2000 1.0000
vt 0.8750 0.4000 1.0000
vt 0.7500 0.4000 1.0000
vt -0.1250 0.2000 1.0000
vt 0.0000 0.2000 1.0000
vt 0.0000 0.4000 1.0000
vt -0.1250 0.4000 1.0000
vt 0.1250 0.2000 1.0000
vt 0.1250 0.4000 1.0000
vt 0.2500 0.2000 1.0000
vt 0.2500 0.4000 1.0000
vt 0.3750 0.2000 1.0000
vt 0.3750 0.4000 1.0000
vt 0.5000 0.2000 1.0000
vt 0.5000 0.4000 1.0000
vt 0.6250 0.2000 1.0000
vt 0.6250 0.4000 1.0000
vt 0.8750 0.6000 1.0000
vt 0.7500 0.6000 1.0000
vt 0.0000 0.6000 1.0000
vt -0.1250 0.6000 1.0000
vt 0.1250 0.6000 1.0000
vt 0.2500 0.6000 1.0000
vt 0.3750 0.6000 1.0000
vt 0.5000 0.6000 1.0000
vt 0.6250 0.6000 1.0000
vt 0.8750 0.8000 1.0000
vt 0.7500 0.8000 1.0000
vt 0.0000 0.8000 1.0000
vt -0.1250 0.8000 1.0000
vt 0.1250 0.8000 1.0000
vt 0.2500 0.8000 1.0000
vt 0.3750 0.8000 1.0000
vt 0.5000 0.8000 1.0000
vt 0.6250 0.8000 1.0000
vt 0.8750 0.9941 1.0000
vt 0.7500 0.9941 1.0000
vt 0.0000 0.9941 1.0000
vt -0.1250 0.9941 1.0000
vt 0.1250 0.9941 1.0000
vt 0.2500 0.9941 1.0000
vt 0.3750 0.9941 1.0000
vt 0.5000 0.9941 1.0000
vt 0.6250 0.9941 1.0000
vt 0.6250 1.0000 1.0000
vt 0.7500 1.0000 1.0000
vt 0.8750 1.0000 1.0000
vt 0.7803 1.0000 0.4142
vt 0.5214 1.0000 -0.4142
vt 0.2500 1.0000 -1.0000
vt 0.1250 1.0000 -1.0000
vt 0.2197 1.0000 -0.4142
vt 0.0000 1.0000 1.0000
vt -0.1250 1.0000 1.0000
vt 0.1250 1.0000 1.0000
vt 0.2500 1.0000 1.0000
vt 0.3750 1.0000 1.0000
vt 0.5000 1.0000 1.0000
# 83 texture coords

o Cylinder007
g Cylinder007
usemtl 01___Default
s 1
f 1/1/1 2/2/2 3/3/3 4/4/4 5/5/5 6/6/6 7/7/7 8/8/8 
s 8
f 8/8/8 7/7/7 9/9/9 10/10/10 
f 7/11/7 6/12/6 11/13/11 9/14/9 
f 6/12/6 5/15/5 12/16/12 11/13/11 
f 5/15/5 4/17/4 13/18/13 12/16/12 
f 4/17/4 3/19/3 14/20/14 13/18/13 
f 3/19/3 2/21/2 15/22/15 14/20/14 
f 2/21/2 1/23/1 16/24/16 15/22/15 
f 1/23/1 8/8/8 10/10/10 16/24/16 
f 17/25/17 18/26/18 19/27/19 20/28/20 
f 18/29/18 21/30/21 22/31/22 19/32/19 
f 21/30/21 23/33/23 24/34/24 22/31/22 
f 23/33/23 25/35/25 26/36/26 24/34/24 
f 25/35/25 27/37/27 28/38/28 26/36/26 
f 27/37/27 29/39/29 30/40/30 28/38/28 
f 29/39/29 31/41/31 32/42/32 30/40/30 
f 31/41/31 17/25/17 20/28/20 32/42/32 
f 20/28/20 19/27/19 33/43/33 34/44/34 
f 19/32/19 22/31/22 35/45/35 33/46/33 
f 22/31/22 24/34/24 36/47/36 35/45/35 
f 24/34/24 26/36/26 37/48/37 36/47/36 
f 26/36/26 28/38/28 38/49/38 37/48/37 
f 28/38/28 30/40/30 39/50/39 38/49/38 
f 30/40/30 32/42/32 40/51/40 39/50/39 
f 32/42/32 20/28/20 34/44/34 40/51/40 
f 34/44/34 33/43/33 41/52/41 42/53/42 
f 33/46/33 35/45/35 43/54/43 41/55/41 
f 35/45/35 36/47/36 44/56/44 43/54/43 
f 36/47/36 37/48/37 45/57/45 44/56/44 
f 37/48/37 38/49/38 46/58/46 45/57/45 
f 38/49/38 39/50/39 47/59/47 46/58/46 
f 39/50/39 40/51/40 48/60/48 47/59/47 
f 40/51/40 34/44/34 42/53/42 48/60/48 
f 42/53/42 41/52/41 49/61/49 50/62/50 
f 41/55/41 43/54/43 51/63/51 49/64/49 
f 43/54/43 44/56/44 52/65/52 51/63/51 
f 44/56/44 45/57/45 53/66/53 52/65/52 
f 45/57/45 46/58/46 54/67/54 53/66/53 
f 46/58/46 47/59/47 55/68/55 54/67/54 
f 47/59/47 48/60/48 56/69/56 55/68/55 
f 48/60/48 42/53/42 50/62/50 56/69/56 
s 1
f 57/70/57 58/71/58 59/72/59 60/73/60 61/74/61 62/75/62 63/76/63 64/77/64 
s off
f 65/71/65 66/72/66 67/72/67 68/71/67 
f 66/72/66 69/73/68 70/73/69 67/72/67 
f 69/73/68 71/74/70 72/74/69 70/73/69 
f 71/74/70 73/75/71 74/75/72 72/74/69 
f 73/75/71 75/76/73 76/76/72 74/75/72 
f 75/76/73 77/77/74 78/77/72 76/76/72 
f 77/77/74 79/70/75 80/70/76 78/77/72 
f 79/70/75 65/71/65 68/71/67 80/70/76 
f 81/71/77 82/72/78 83/72/79 84/71/80 
f 82/72/78 85/73/81 86/73/82 83/72/79 
f 85/73/81 87/74/83 88/74/84 86/73/82 
f 87/74/83 89/75/85 90/75/86 88/74/84 
f 89/75/85 91/76/87 92/76/88 90/75/86 
f 91/76/87 93/77/89 94/77/90 92/76/88 
f 93/77/89 95/70/91 96/70/92 94/77/90 
f 95/70/91 81/71/77 84/71/80 96/70/92 
f 84/71/80 83/72/79 97/72/67 98/71/67 
f 83/72/79 86/73/82 99/73/67 97/72/67 
f 86/73/82 88/74/84 100/74/67 99/73/67 
f 88/74/84 90/75/86 101/75/67 100/74/67 
f 90/75/86 92/76/88 102/76/67 101/75/67 
f 92/76/88 94/77/90 103/77/67 102/76/67 
f 94/77/90 96/70/92 104/70/67 103/77/67 
f 96/70/92 84/71/80 98/71/67 104/70/67 
f 105/71/93 106/72/94 107/72/95 108/71/96 
f 106/72/94 109/73/97 110/73/98 107/72/95 
f 109/73/97 111/74/99 112/74/100 110/73/98 
f 111/74/99 113/75/101 114/75/102 112/74/100 
f 113/75/101 115/76/103 116/76/104 114/75/102 
f 115/76/103 117/77/105 118/77/106 116/76/104 
f 117/77/105 119/70/107 120/70/108 118/77/106 
f 119/70/107 105/71/93 108/71/96 120/70/108 
s 8
f 9/9/9 18/26/18 17/25/17 10/10/10 
f 11/13/11 21/30/21 18/29/18 9/14/9 
f 12/16/12 23/33/23 21/30/21 11/13/11 
f 13/18/13 25/35/25 23/33/23 12/16/12 
f 14/20/14 27/37/27 25/35/25 13/18/13 
f 15/22/15 29/39/29 27/37/27 14/20/14 
f 16/24/16 31/41/31 29/39/29 15/22/15 
f 10/10/10 17/25/17 31/41/31 16/24/16 
s off
f 67/72/67 82/72/78 81/71/77 68/71/67 
f 70/73/69 85/73/81 82/72/78 67/72/67 
f 72/74/69 87/74/83 85/73/81 70/73/69 
f 74/75/72 89/75/85 87/74/83 72/74/69 
f 76/76/72 91/76/87 89/75/85 74/75/72 
f 78/77/72 93/77/89 91/76/87 76/76/72 
f 80/70/76 95/70/91 93/77/89 78/77/72 
f 68/71/67 81/71/77 95/70/91 80/70/76 
s 8
f 49/61/49 66/72/66 65/71/65 50/62/50 
f 51/63/51 69/78/68 66/79/66 49/64/49 
f 52/65/52 71/80/70 69/78/68 51/63/51 
f 53/66/53 73/81/71 71/80/70 52/65/52 
f 54/67/54 75/82/73 73/81/71 53/66/53 
f 55/68/55 77/83/74 75/82/73 54/67/54 
f 56/69/56 79/70/75 77/83/74 55/68/55 
f 50/62/50 65/71/65 79/70/75 56/69/56 
s off
f 121/72/67 106/72/94 105/71/93 122/71/67 
f 123/73/67 109/73/97 106/72/94 121/72/67 
f 124/74/67 111/74/99 109/73/97 123/73/67 
f 125/75/67 113/75/101 111/74/99 124/74/67 
f 126/76/67 115/76/103 113/75/101 125/75/67 
f 127/77/67 117/77/105 115/76/103 126/76/67 
f 128/70/67 119/70/107 117/77/105 127/77/67 
f 122/71/67 105/71/93 119/70/107 128/70/67 
f 107/72/95 59/72/59 58/71/58 108/71/96 
f 110/73/98 60/73/60 59/72/59 107/72/95 
f 112/74/100 61/74/61 60/73/60 110/73/98 
f 114/75/102 62/75/62 61/74/61 112/74/100 
f 116/76/104 63/76/63 62/75/62 114/75/102 
f 118/77/106 64/77/64 63/76/63 116/76/104 
f 120/70/108 57/70/57 64/77/64 118/77/106 
f 108/71/96 58/71/58 57/70/57 120/70/108 
f 97/72/67 121/72/67 122/71/67 98/71/67 
f 99/73/67 123/73/67 121/72/67 97/72/67 
f 100/74/67 124/74/67 123/73/67 99/73/67 
f 101/75/67 125/75/67 124/74/67 100/74/67 
f 102/76/67 126/76/67 125/75/67 101/75/67 
f 103/77/67 127/77/67 126/76/67 102/76/67 
f 104/70/67 128/70/67 127/77/67 103/77/67 
f 98/71/67 122/71/67 128/70/67 104/70/67 
# 122 polygons

